<?xml version="1.0" encoding="UTF-8"?>
<svg id="Camada_1" data-name="Camada 1" xmlns="http://www.w3.org/2000/svg" xmlns:xlink="http://www.w3.org/1999/xlink" viewBox="0 0 474.59 494">
  <defs>
    <style>
      .cls-1 {
        fill: url(#Gradiente_sem_nome_361-2);
      }

      .cls-1, .cls-2 {
        stroke-width: 0px;
      }

      .cls-2 {
        fill: url(#Gradiente_sem_nome_361);
      }
    </style>
    <linearGradient id="Gradiente_sem_nome_361" data-name="Gradiente sem nome 361" x1="0" y1="210.9" x2="454.64" y2="210.9" gradientUnits="userSpaceOnUse">
      <stop offset="0" stop-color="#fff"/>
      <stop offset="0" stop-color="#acd8f9"/>
      <stop offset=".87" stop-color="#03045e"/>
    </linearGradient>
    <linearGradient id="Gradiente_sem_nome_361-2" data-name="Gradiente sem nome 361" x1="56.72" y1="336.14" x2="474.59" y2="336.14" xlink:href="#Gradiente_sem_nome_361"/>
  </defs>
  <path class="cls-2" d="M452.51,134.9c-11.08-20.41-26.26-36.77-46.92-47.62-35.5-18.64-73.5-21.72-112.35-16.5-47.8,6.43-88.13,28.84-123.67,60.6-1.37,1.22-2.56,2.65-3.71,4.08-.62.76-.97,1.74-2.56,4.69,5.24-2.13,8.77-3.29,12.06-4.93,30.48-15.22,61.29-29.75,95.24-35.34,33.67-5.54,67.35-6.06,99.8,6.51,24.18,9.37,44.64,23.88,56.77,47.69,12.22,23.97,9.98,48.49,1.2,72.8-10.86,30.06-28.24,56.34-48.47,80.86-.43.52-1.24.71-2.45,1.38,0-12.74.47-24.99-.08-37.19-2.92-65.17-42.66-116.47-105.04-135.13-27.14-8.12-54.3-5.77-80.9,3.04-11.74,3.89-23.15,8.76-34.67,13.26-48.03,18.76-83.97,51.13-106.19,97.45-15.12,31.52-18.97,64.92-9.06,99.15,6.12,21.12,19.56,36.42,38.37,47.15,8.18,4.67,16.84,8.49,25.81,11.86-6.16-5.31-12.61-10.33-18.42-15.99-45.41-44.27-41.2-101.68-18.87-142.97,20.98-38.79,53.62-64.22,92.82-82.4,5.18-2.4,10.45-4.63,16.31-6.47-44,40.39-57.63,89.78-44.5,146.88,10.42,45.3,54.63,91.98,118.54,95.49-12.8,4.14-25.38,9.25-38.44,12.25-41.27,9.48-82.1,9.57-121.39-8.89-30.59-14.37-54.28-35.78-68.52-66.95-26.98-59.08-31.4-119.82-8.14-180.4C51.09,65.41,121.01,11.44,220.76,1.41c92.41-9.3,165.88,27.74,219.17,103.72,6.08,8.67,9.86,18.96,14.71,28.5-.71.43-1.42.85-2.14,1.28Z"/>
  <path class="cls-1" d="M346.36,363.65c-27.19,53.37-60.26,100.93-122.35,118.83.39.77.79,1.55,1.18,2.32,8.06-2.33,16.53-3.74,24.1-7.15,51.03-23,90.96-57.54,113.04-110.22,1.42-3.39,3.47-6.78,3.84-10.32,1.77-16.66,12.72-27.41,23.23-38.96,31.04-34.11,52.06-73.75,62.93-118.6,1.48-6.09,1.78-12.47,2.97-21.27,3.65,9.49,7.01,16.72,9.24,24.28,12.98,44.02,13.86,88.19-.29,132.07-17.03,52.77-50.01,93.42-97.38,121.86-58.3,35-121.66,45-188.01,32.11-47.06-9.14-85.46-34.61-117.48-69.87-1.74-1.92-3.09-4.18-4.68-6.36.74-.3,1.35-.73,1.55-.59,51.75,36.55,107.92,40.81,166.36,20.74,43.92-15.08,83.88-37.98,119.74-67.7.59-.49,1.32-.79,1.99-1.17Z"/>
</svg>