<?xml version="1.0" encoding="UTF-8"?>
<svg id="Camada_1" data-name="Camada 1" xmlns="http://www.w3.org/2000/svg" xmlns:xlink="http://www.w3.org/1999/xlink" viewBox="0 0 1280 400.68">
  <defs>
    <style>
      .cls-1 {
        fill: #03045e;
      }

      .cls-1, .cls-2, .cls-3 {
        stroke-width: 0px;
      }

      .cls-2 {
        fill: url(#Gradiente_sem_nome_361-2);
      }

      .cls-3 {
        fill: url(#Gradiente_sem_nome_361);
      }
    </style>
    <linearGradient id="Gradiente_sem_nome_361" data-name="Gradiente sem nome 361" x1="0" y1="171.06" x2="368.75" y2="171.06" gradientUnits="userSpaceOnUse">
      <stop offset="0" stop-color="#fff"/>
      <stop offset="0" stop-color="#acd8f9"/>
      <stop offset=".87" stop-color="#03045e"/>
    </linearGradient>
    <linearGradient id="Gradiente_sem_nome_361-2" data-name="Gradiente sem nome 361" x1="46" y1="272.64" x2="384.93" y2="272.64" xlink:href="#Gradiente_sem_nome_361"/>
  </defs>
  <g>
    <path class="cls-3" d="M367.02,109.41c-8.99-16.55-21.3-29.83-38.05-38.63-28.79-15.12-59.62-17.62-91.12-13.38-38.77,5.21-71.48,23.39-100.31,49.15-1.11.99-2.08,2.15-3.01,3.31-.5.62-.79,1.41-2.08,3.8,4.25-1.72,7.11-2.67,9.78-4,24.72-12.34,49.71-24.13,77.25-28.66,27.31-4.5,54.63-4.92,80.95,5.28,19.61,7.6,36.2,19.37,46.05,38.68,9.91,19.44,8.09,39.33.97,59.05-8.81,24.38-22.91,45.7-39.32,65.59-.34.42-1,.58-1.99,1.12,0-10.33.38-20.27-.06-30.17-2.37-52.86-34.6-94.46-85.2-109.6-22.01-6.59-44.04-4.68-65.62,2.47-9.52,3.15-18.77,7.11-28.12,10.76-38.96,15.21-68.1,41.47-86.13,79.04-12.26,25.57-15.39,52.66-7.35,80.42,4.96,17.13,15.86,29.54,31.12,38.24,6.64,3.78,13.66,6.89,20.93,9.62-4.99-4.31-10.23-8.37-14.94-12.97-36.83-35.91-33.42-82.47-15.31-115.96,17.01-31.46,43.49-52.09,75.29-66.83,4.2-1.95,8.47-3.75,13.23-5.25-35.69,32.76-46.74,72.82-36.09,119.14,8.45,36.74,44.31,74.61,96.14,77.45-10.38,3.36-20.58,7.5-31.18,9.94-33.47,7.69-66.59,7.76-98.46-7.21-24.81-11.65-44.03-29.02-55.58-54.31C-3.06,227.57-6.65,178.3,12.22,129.17,41.44,53.06,98.15,9.28,179.06,1.14c74.95-7.54,134.55,22.5,177.76,84.12,4.93,7.04,8,15.38,11.93,23.11-.58.34-1.15.69-1.73,1.03Z"/>
    <path class="cls-2" d="M280.93,294.95c-22.05,43.29-48.88,81.86-99.23,96.38.32.63.64,1.26.96,1.88,6.53-1.89,13.41-3.03,19.55-5.8,41.39-18.65,73.78-46.67,91.69-89.4,1.15-2.75,2.81-5.5,3.12-8.37,1.43-13.52,10.32-22.23,18.84-31.6,25.17-27.67,42.22-59.82,51.04-96.19,1.2-4.94,1.44-10.11,2.41-17.25,2.96,7.7,5.68,13.56,7.49,19.69,10.53,35.7,11.24,71.53-.24,107.12-13.81,42.8-40.56,75.78-78.99,98.84-47.28,28.38-98.67,36.5-152.49,26.05-38.17-7.41-69.32-28.07-95.28-56.67-1.41-1.55-2.51-3.39-3.8-5.16.6-.24,1.1-.6,1.26-.48,41.98,29.64,87.53,33.1,134.94,16.82,35.63-12.23,68.04-30.81,97.12-54.91.47-.39,1.07-.64,1.61-.95Z"/>
  </g>
  <path class="cls-1" d="M427.84,274.6l95.16-230.35h38.68l95.16,230.35h-38l-18.32-48h-116.36l-18.32,48h-38ZM589.83,196.91l-47.5-112.8-47.5,112.8h94.99ZM633.94,44.24h187.27v33.42h-75.82v196.94h-35.45V77.66h-75.99v-33.42ZM914.84,40.85c45.63,0,77.86,29.18,77.86,70.74,0,44.44-34.1,63.1-64.46,86.17-19.34,14.59-44.27,33.59-44.95,43.09h113.14v33.76h-154.36v-15.44c0-40.54,38.67-66.15,67.34-88.21,28.33-21.71,45.97-36.13,45.97-58.69s-16.45-37.66-40.54-37.66c-19.68,0-38,12.89-46.14,34.27l-30.02-14.42c11.03-31.72,42.41-53.6,76.16-53.6ZM1041.88,274.6V44.24h99.4c43.59,0,70.23,29.35,70.23,64.46,0,18.49-9.5,37.32-25.28,46.48,21.54,9.16,33.93,30.19,33.93,52.75,0,37.49-30.36,66.66-72.09,66.66h-106.19ZM1141.29,142.29c21.2,0,34.26-15.44,34.26-32.74s-12.04-33.59-34.26-33.59h-63.61v66.32h63.61ZM1077.67,242.71h70.4c22.56,0,36.81-16.45,36.81-35.45s-14.93-34.94-36.81-34.94h-70.4v70.4Z"/>
  <g>
    <path class="cls-1" d="M424.67,308.65h42.99v6.17h-18.19v48.24h-6.61v-48.24h-18.19v-6.17Z"/>
    <path class="cls-1" d="M484.25,323.8c9.62,0,18.55,6.77,18.55,18.07,0,1.16-.04,2.44-.2,3.53h-31.69c.4,7.01,5.65,12.66,13.66,12.66,5.41,0,9.38-2.52,12.14-6.45l4.85,3.53c-3.53,5.45-9.78,8.74-16.99,8.74-11.58,0-20.11-8.74-20.11-20.04s8.85-20.04,19.79-20.04ZM471.15,340.14h25.28c-.44-6.33-5.61-10.54-12.14-10.54s-12.18,4.21-13.14,10.54Z"/>
    <path class="cls-1" d="M510.01,343.83c0-11.3,8.98-20.04,20.4-20.04,7.73,0,14.27,3.81,17.63,10.26l-5.09,3.13c-2.68-4.65-7.05-7.45-12.54-7.45-7.81,0-14.02,6.21-14.02,14.1s5.97,14.1,14.06,14.1c5.33,0,9.9-2.88,12.34-7.25l5.09,3.13c-3.13,6.13-9.94,10.06-17.43,10.06-11.7,0-20.44-8.82-20.44-20.04Z"/>
    <path class="cls-1" d="M557.24,363.06v-38.47h6.41v5.77c2.16-3.57,6.73-6.57,12.86-6.57,10.14,0,16.23,5.97,16.23,15.87v23.4h-6.37v-21.84c0-7.49-3.89-11.42-10.86-11.42-6.57,0-11.9,4.53-11.9,11.54v21.72h-6.37Z"/>
    <path class="cls-1" d="M602.19,343.83c0-11.26,8.73-20.04,20.44-20.04s20.44,8.78,20.44,20.04-8.73,20.04-20.44,20.04-20.44-8.78-20.44-20.04ZM622.62,357.94c8.09,0,14.06-6.17,14.06-14.1s-5.97-14.1-14.06-14.1-14.06,6.17-14.06,14.1,5.97,14.1,14.06,14.1Z"/>
    <path class="cls-1" d="M653.03,306.65h6.37v56.42h-6.37v-56.42Z"/>
    <path class="cls-1" d="M669.37,343.83c0-11.26,8.74-20.04,20.44-20.04s20.44,8.78,20.44,20.04-8.74,20.04-20.44,20.04-20.44-8.78-20.44-20.04ZM689.81,357.94c8.09,0,14.06-6.17,14.06-14.1s-5.97-14.1-14.06-14.1-14.06,6.17-14.06,14.1,5.97,14.1,14.06,14.1Z"/>
    <path class="cls-1" d="M717.61,343.71c0-11.54,8.38-19.92,19.39-19.92,6.89,0,11.94,2.97,14.83,7.09v-6.29h6.37v35.7c0,11.94-8.17,19.59-21,19.59-7.17,0-13.62-2.72-17.79-7.57l4.21-4.17c3.53,3.81,8.21,5.93,13.58,5.93,8.94,0,14.63-5.01,14.63-12.86v-4.49c-2.81,4.05-7.93,7.13-14.83,7.13-11.02,0-19.39-8.58-19.39-20.16ZM723.94,343.71c0,7.97,5.69,14.38,13.7,14.38s14.26-6.41,14.26-14.38-6.05-14.14-14.26-14.14-13.7,6.21-13.7,14.14Z"/>
    <path class="cls-1" d="M774.02,307.77c2.32,0,4.01,1.6,4.01,3.93s-1.68,3.97-4.01,3.97-3.93-1.64-3.93-3.97,1.6-3.93,3.93-3.93ZM777.22,324.6v38.47h-6.37v-38.47h6.37Z"/>
    <path class="cls-1" d="M787.48,352.08c0-7.13,6.69-12.1,16.79-12.1,4.25,0,8.13,1.04,10.94,2.24v-2.8c0-6.01-4.53-9.7-10.78-9.7-4.65,0-8.82,2.08-11.9,5.69l-4.13-3.93c3.45-4.65,9.78-7.69,15.99-7.69,10.42,0,17.15,5.93,17.15,15.11v24.16h-6.25v-5.85c-2.36,3.93-7.01,6.65-12.58,6.65-8.9,0-15.23-4.29-15.23-11.78ZM793.93,351.96c0,4.33,3.97,6.65,9.18,6.65,7.13,0,12.1-5.49,12.1-11.1-2.52-1.48-6.77-2.52-10.62-2.52-6.17,0-10.66,2.44-10.66,6.97Z"/>
    <path class="cls-1" d="M869.25,323.8c9.62,0,18.55,6.77,18.55,18.07,0,1.16-.04,2.44-.2,3.53h-31.7c.4,7.01,5.65,12.66,13.66,12.66,5.41,0,9.38-2.52,12.14-6.45l4.85,3.53c-3.53,5.45-9.78,8.74-16.99,8.74-11.58,0-20.11-8.74-20.11-20.04s8.86-20.04,19.79-20.04ZM856.15,340.14h25.28c-.44-6.33-5.61-10.54-12.14-10.54s-12.18,4.21-13.14,10.54Z"/>
    <path class="cls-1" d="M918.84,348.56c2.8,5.05,7.93,9.3,15.95,9.3,7.33,0,12.54-3.49,12.54-8.54,0-5.37-4.53-7.65-13.58-10.7-10.1-3.41-17.83-7.05-17.83-16.27,0-9.7,9.22-14.5,17.79-14.5,10.5,0,16.39,5.89,19.03,10.38l-5.17,3.77c-2.04-3.25-6.33-8.09-13.86-8.09-5.69,0-10.9,2.8-10.9,8.37s4.77,7.17,13.02,9.98c10.22,3.49,18.39,7.13,18.39,16.99,0,8.54-8.21,14.63-19.43,14.63-10.42,0-17.87-5.29-20.92-11.74l4.97-3.57Z"/>
    <path class="cls-1" d="M981.5,323.8c9.62,0,18.55,6.77,18.55,18.07,0,1.16-.04,2.44-.2,3.53h-31.7c.4,7.01,5.65,12.66,13.66,12.66,5.41,0,9.38-2.52,12.14-6.45l4.85,3.53c-3.53,5.45-9.78,8.74-16.99,8.74-11.58,0-20.11-8.74-20.11-20.04s8.86-20.04,19.79-20.04ZM968.4,340.14h25.28c-.44-6.33-5.61-10.54-12.14-10.54s-12.18,4.21-13.14,10.54Z"/>
    <path class="cls-1" d="M1010.1,363.06v-38.47h6.41v5.69c2.16-4.45,5.97-6.49,10.38-6.49,2.72,0,4.73.68,5.45,1l-.64,5.89c-1.08-.4-2.56-.96-5.05-.96-5.13,0-10.14,3.37-10.14,11.98v21.36h-6.41Z"/>
    <path class="cls-1" d="M1035.66,324.6h6.81l12.02,32.38,11.98-32.38h6.85l-14.91,38.47h-7.85l-14.91-38.47Z"/>
    <path class="cls-1" d="M1084.46,307.77c2.32,0,4.01,1.6,4.01,3.93s-1.68,3.97-4.01,3.97-3.93-1.64-3.93-3.97,1.6-3.93,3.93-3.93ZM1087.67,324.6v38.47h-6.37v-38.47h6.37Z"/>
    <path class="cls-1" d="M1097.64,343.83c0-11.3,8.98-20.04,20.4-20.04,7.73,0,14.26,3.81,17.63,10.26l-5.09,3.13c-2.68-4.65-7.05-7.45-12.54-7.45-7.81,0-14.02,6.21-14.02,14.1s5.97,14.1,14.06,14.1c5.33,0,9.9-2.88,12.34-7.25l5.09,3.13c-3,5.89-9.38,9.74-16.51,10.06l-1,3.08c4.97.36,8.17,2.84,8.17,6.65,0,4.61-3.89,7.37-10.38,7.37-2.16,0-4.25-.36-5.41-.8v-4.57c1.16.4,3.08.76,4.97.76,3.33,0,5.13-.96,5.13-2.8,0-2-2-3-5.85-3h-2.36l2.6-6.93c-10.06-1.44-17.23-9.62-17.23-19.79Z"/>
    <path class="cls-1" d="M1141.71,343.83c0-11.26,8.74-20.04,20.44-20.04s20.44,8.78,20.44,20.04-8.74,20.04-20.44,20.04-20.44-8.78-20.44-20.04ZM1162.14,357.94c8.09,0,14.06-6.17,14.06-14.1s-5.97-14.1-14.06-14.1-14.06,6.17-14.06,14.1,5.97,14.1,14.06,14.1Z"/>
    <path class="cls-1" d="M1194.47,351.64c2.12,3.85,5.93,6.49,11.5,6.49,5.01,0,8.58-2.12,8.58-5.41,0-3.57-2.64-4.69-9.14-6.13-8.21-1.84-14.06-4.37-14.06-11.74,0-6.73,6.37-11.06,14.3-11.06,6.93,0,12.06,3.37,14.34,7.13l-4.37,3.61c-1.84-2.68-5.01-5.01-9.98-5.01s-8.01,2.04-8.01,5.21c0,3.69,3.08,4.69,9.62,6.25,8.29,2,13.7,4.65,13.7,11.74s-6.89,11.14-14.99,11.14-13.62-3.37-16.39-8.66l4.89-3.57Z"/>
  </g>
  <g>
    <path class="cls-1" d="M1256.16,0c13.25.05,23.89,10.72,23.84,23.89-.06,13.29-10.71,23.9-23.93,23.85-13.31-.05-23.87-10.72-23.81-24.06.05-13.1,10.78-23.73,23.91-23.68ZM1256.13,44.2c11.18.02,20.3-9.09,20.32-20.29.02-11.24-9.09-20.36-20.34-20.36-11.18,0-20.27,9.09-20.3,20.31-.03,11.19,9.09,20.32,20.32,20.34Z"/>
    <path class="cls-1" d="M1259.86,25.62c2.64,3.91,5.23,7.77,7.87,11.68-.18.02-.32.04-.45.04-1.8,0-3.6,0-5.39,0-.32,0-.5-.11-.66-.38-1.98-3.21-3.98-6.4-5.96-9.61-.17-.28-.35-.37-.67-.37-.86.02-1.72,0-2.64,0v10.3h-5.65V10.41c.14,0,.25,0,.36,0,2.88,0,5.75-.03,8.63.02,1.97.04,3.9.34,5.71,1.21,2.26,1.09,3.46,2.93,3.78,5.4.27,2.09-.03,4.04-1.29,5.77-.79,1.08-1.81,1.87-2.99,2.48-.2.1-.4.2-.64.33ZM1251.97,22.47c1.43-.1,2.81-.1,4.14-.33,2.27-.4,3.28-1.93,2.96-4.22-.16-1.16-.79-1.97-1.89-2.34-.73-.25-1.51-.41-2.29-.47-.96-.08-1.94-.02-2.93-.02v7.38Z"/>
  </g>
</svg>