<?xml version="1.0" encoding="UTF-8"?>
<svg id="Camada_1" data-name="Camada 1" xmlns="http://www.w3.org/2000/svg" xmlns:xlink="http://www.w3.org/1999/xlink" viewBox="0 0 1280 400.68">
  <defs>
    <style>
      .cls-1, .cls-2 {
        fill: #03045e;
      }

      .cls-1, .cls-3, .cls-4 {
        stroke-width: 0px;
      }

      .cls-2 {
        font-family: Mundial-Light, Mundial;
        font-size: 82.05px;
        font-weight: 300;
      }

      .cls-3 {
        fill: url(#Gradiente_sem_nome_361-2);
      }

      .cls-5 {
        letter-spacing: 0em;
      }

      .cls-4 {
        fill: url(#Gradiente_sem_nome_361);
      }

      .cls-6 {
        letter-spacing: -.1em;
      }
    </style>
    <linearGradient id="Gradiente_sem_nome_361" data-name="Gradiente sem nome 361" x1="0" y1="171.06" x2="368.75" y2="171.06" gradientUnits="userSpaceOnUse">
      <stop offset="0" stop-color="#fff"/>
      <stop offset="0" stop-color="#acd8f9"/>
      <stop offset=".87" stop-color="#03045e"/>
    </linearGradient>
    <linearGradient id="Gradiente_sem_nome_361-2" data-name="Gradiente sem nome 361" x1="46" y1="272.64" x2="384.93" y2="272.64" xlink:href="#Gradiente_sem_nome_361"/>
  </defs>
  <g>
    <g>
      <path class="cls-4" d="M367.02,109.41c-8.99-16.55-21.3-29.83-38.05-38.63-28.79-15.12-59.62-17.62-91.12-13.38-38.77,5.21-71.48,23.39-100.31,49.15-1.11.99-2.08,2.15-3.01,3.31-.5.62-.79,1.41-2.08,3.8,4.25-1.72,7.11-2.67,9.78-4,24.72-12.34,49.71-24.13,77.25-28.66,27.31-4.5,54.63-4.92,80.95,5.28,19.61,7.6,36.2,19.37,46.05,38.68,9.91,19.44,8.09,39.33.97,59.05-8.81,24.38-22.91,45.7-39.32,65.59-.34.42-1,.58-1.99,1.12,0-10.33.38-20.27-.06-30.17-2.37-52.86-34.6-94.46-85.2-109.6-22.01-6.59-44.04-4.68-65.62,2.47-9.52,3.15-18.77,7.11-28.12,10.76-38.96,15.21-68.1,41.47-86.13,79.04-12.26,25.57-15.39,52.66-7.35,80.42,4.96,17.13,15.86,29.54,31.12,38.24,6.64,3.78,13.66,6.89,20.93,9.62-4.99-4.31-10.23-8.37-14.94-12.97-36.83-35.91-33.42-82.47-15.31-115.96,17.01-31.46,43.49-52.09,75.29-66.83,4.2-1.95,8.47-3.75,13.23-5.25-35.69,32.76-46.74,72.82-36.09,119.14,8.45,36.74,44.31,74.61,96.14,77.45-10.38,3.36-20.58,7.5-31.18,9.94-33.47,7.69-66.59,7.76-98.46-7.21-24.81-11.65-44.03-29.02-55.58-54.31C-3.06,227.57-6.65,178.3,12.22,129.17,41.44,53.06,98.15,9.28,179.06,1.14c74.95-7.54,134.55,22.5,177.76,84.12,4.93,7.04,8,15.38,11.93,23.11-.58.34-1.15.69-1.73,1.03Z"/>
      <path class="cls-3" d="M280.93,294.95c-22.05,43.29-48.88,81.86-99.23,96.38.32.63.64,1.26.96,1.88,6.53-1.89,13.41-3.03,19.55-5.8,41.39-18.65,73.78-46.67,91.69-89.4,1.15-2.75,2.81-5.5,3.12-8.37,1.43-13.52,10.32-22.23,18.84-31.6,25.17-27.67,42.22-59.82,51.04-96.19,1.2-4.94,1.44-10.11,2.41-17.25,2.96,7.7,5.68,13.56,7.49,19.69,10.53,35.7,11.24,71.53-.24,107.12-13.81,42.8-40.56,75.78-78.99,98.84-47.28,28.38-98.67,36.5-152.49,26.05-38.17-7.41-69.32-28.07-95.28-56.67-1.41-1.55-2.51-3.39-3.8-5.16.6-.24,1.1-.6,1.26-.48,41.98,29.64,87.53,33.1,134.94,16.82,35.63-12.23,68.04-30.81,97.12-54.91.47-.39,1.07-.64,1.61-.95Z"/>
    </g>
    <path class="cls-1" d="M427.84,274.6l95.16-230.35h38.68l95.16,230.35h-38l-18.32-48h-116.36l-18.32,48h-38ZM589.83,196.91l-47.5-112.8-47.5,112.8h94.99ZM633.94,44.24h187.27v33.42h-75.82v196.94h-35.45V77.66h-75.99v-33.42ZM914.84,40.85c45.63,0,77.86,29.18,77.86,70.74,0,44.44-34.1,63.1-64.46,86.17-19.34,14.59-44.27,33.59-44.95,43.09h113.14v33.76h-154.36v-15.44c0-40.54,38.67-66.15,67.34-88.21,28.33-21.71,45.97-36.13,45.97-58.69s-16.45-37.66-40.54-37.66c-19.68,0-38,12.89-46.14,34.27l-30.02-14.42c11.03-31.72,42.41-53.6,76.16-53.6ZM1041.88,274.6V44.24h99.4c43.59,0,70.23,29.35,70.23,64.46,0,18.49-9.5,37.32-25.28,46.48,21.54,9.16,33.93,30.19,33.93,52.75,0,37.49-30.36,66.66-72.09,66.66h-106.19ZM1141.29,142.29c21.2,0,34.26-15.44,34.26-32.74s-12.04-33.59-34.26-33.59h-63.61v66.32h63.61ZM1077.67,242.71h70.4c22.56,0,36.81-16.45,36.81-35.45s-14.93-34.94-36.81-34.94h-70.4v70.4Z"/>
    <text class="cls-2" transform="translate(423.23 363.06)"><tspan class="cls-6" x="0" y="0">T</tspan><tspan x="37.62" y="0">ecnologia e Servi</tspan><tspan class="cls-5" x="670.84" y="0">รง</tspan><tspan x="714.91" y="0">os</tspan></text>
  </g>
  <g>
    <path class="cls-1" d="M1256.16,0c13.25.05,23.89,10.72,23.84,23.89-.06,13.29-10.71,23.9-23.93,23.85-13.31-.05-23.87-10.72-23.81-24.06.05-13.1,10.78-23.73,23.91-23.68ZM1256.13,44.2c11.18.02,20.3-9.09,20.32-20.29.02-11.24-9.09-20.36-20.34-20.36-11.18,0-20.27,9.09-20.3,20.31-.03,11.19,9.09,20.32,20.32,20.34Z"/>
    <path class="cls-1" d="M1259.86,25.62c2.64,3.91,5.23,7.77,7.87,11.68-.18.02-.32.04-.45.04-1.8,0-3.6,0-5.39,0-.32,0-.5-.11-.66-.38-1.98-3.21-3.98-6.4-5.96-9.61-.17-.28-.35-.37-.67-.37-.86.02-1.72,0-2.64,0v10.3h-5.65V10.41c.14,0,.25,0,.36,0,2.88,0,5.75-.03,8.63.02,1.97.04,3.9.34,5.71,1.21,2.26,1.09,3.46,2.93,3.78,5.4.27,2.09-.03,4.04-1.29,5.77-.79,1.08-1.81,1.87-2.99,2.48-.2.1-.4.2-.64.33ZM1251.97,22.47c1.43-.1,2.81-.1,4.14-.33,2.27-.4,3.28-1.93,2.96-4.22-.16-1.16-.79-1.97-1.89-2.34-.73-.25-1.51-.41-2.29-.47-.96-.08-1.94-.02-2.93-.02v7.38Z"/>
  </g>
</svg>